<svg id="Layer_1" data-name="Layer 1" xmlns="http://www.w3.org/2000/svg" xmlns:xlink="http://www.w3.org/1999/xlink" viewBox="0 0 65 65"><defs><style>.cls-1{fill:none;}.cls-2{clip-path:url(#clip-path);}.cls-3{fill:#f6f7f6;}.cls-4{clip-path:url(#clip-path-2);}.cls-5{clip-path:url(#clip-path-3);}</style><clipPath id="clip-path"><path class="cls-1" d="M45.102,0H19.898A19.9577,19.9577,0,0,0,0,19.898V45.102A19.9577,19.9577,0,0,0,19.898,65H45.102A19.9577,19.9577,0,0,0,65,45.102V19.898A19.9577,19.9577,0,0,0,45.102,0Zm0,5.3061A14.5919,14.5919,0,0,1,59.6939,19.898V45.102A14.5919,14.5919,0,0,1,45.102,59.6939H19.898A14.5919,14.5919,0,0,1,5.3061,45.102V19.898A14.5919,14.5919,0,0,1,19.898,5.3061H45.102"/></clipPath><clipPath id="clip-path-2"><path class="cls-1" d="M50.1429,11.1429a3.7143,3.7143,0,1,0,2.6263,1.0879A3.7142,3.7142,0,0,0,50.1429,11.1429Z"/></clipPath><clipPath id="clip-path-3"><path class="cls-1" d="M32.9309,15.7858a17.1786,17.1786,0,1,0,12.1663,5.0173A17.1786,17.1786,0,0,0,32.9309,15.7858Zm0,5.3515a11.827,11.827,0,1,1-11.82,11.82,11.8273,11.8273,0,0,1,11.82-11.82"/></clipPath></defs><g class="cls-2"><rect class="cls-3" x="-1" y="-1" width="67" height="67"/></g><g class="cls-4"><rect class="cls-3" x="45.4286" y="10.1429" width="9.4286" height="9.4286"/></g><g class="cls-5"><rect class="cls-3" x="14.7722" y="14.7769" width="36.3743" height="36.3745"/></g></svg>