<svg id="Layer_1" data-name="Layer 1" xmlns="http://www.w3.org/2000/svg" xmlns:xlink="http://www.w3.org/1999/xlink" viewBox="0 0 65 65"><defs><style>.cls-1{fill:none;}.cls-2{clip-path:url(#clip-path);}.cls-3{fill:#f6f7f6;}</style><clipPath id="clip-path"><path class="cls-1" d="M63.989,62.9179H50.3V40.8821c0-5.5379-1.9823-9.3147-6.9361-9.3147a7.4947,7.4947,0,0,0-7.0244,5.0069,9.3756,9.3756,0,0,0-.45,3.3411V62.9179h-13.69s.1793-37.3259,0-41.19h13.69V27.56a13.5922,13.5922,0,0,1,12.3385-6.7989c9.0077,0,15.7619,5.887,15.7619,18.5386ZM7.7762,16.1031H7.687C3.0927,16.1031.1213,12.94.1213,8.9877c0-4.0419,3.0623-7.1171,7.7459-7.1171s7.5657,3.0752,7.6549,7.1171C15.5221,12.94,12.5507,16.1031,7.7762,16.1031Zm6.8452,46.8148H.93v-41.19H14.6214Z"/></clipPath></defs><g class="cls-2"><rect class="cls-3" x="-0.8787" y="0.8706" width="65.8677" height="63.0473"/></g></svg>