<svg id="Layer_1" data-name="Layer 1" xmlns="http://www.w3.org/2000/svg" viewBox="0 0 65 65"><defs><style>.cls-1{fill:#f6f7f6;}</style></defs><path class="cls-1" d="M2.0557,9.7785a.8475.8475,0,0,0-.4532.12,1.1962,1.1962,0,0,0-.4487,1.0693V51.1115a2.9582,2.9582,0,0,0,1.4849,2.3794l16.5151,8.188a1.643,1.643,0,0,0,1.5962.0922,1.6077,1.6077,0,0,0,.6191-1.4423l-.0014-41.1411L2.7852,9.9738A1.6782,1.6782,0,0,0,2.0557,9.7785Z"/><path class="cls-1" d="M23.8062,43.0919,41.59,51.91,23.8062,23.2492Z"/><path class="cls-1" d="M30.5151,29.7043,43.8,51.111,63.5854,19.2262l-18.96-9.3989a1.7229,1.7229,0,0,0-2.15.6064Zm33.33-10.35.001.001Zm-.1079-.3735-.0029.0044Z"/><path class="cls-1" d="M45.2124,53.5617l15.7847,7.8291a2.3984,2.3984,0,0,0,2.228.1875,1.4036,1.4036,0,0,0,.5723-1.2495V23.61Z"/></svg>