<svg id="Layer_1" data-name="Layer 1" xmlns="http://www.w3.org/2000/svg" viewBox="0 0 234 54"><defs><style>.cls-1{fill:#fff;}.cls-2{fill:#f15e49;}</style></defs><path class="cls-1" d="M8.6344,4.6664h12.54c13.7894,0,22.8227,6.4188,22.8227,21.8123,0,15.69-9.2123,22.1687-22.8227,22.1687H8.6344ZM21.8288,41.9906c10.0443,0,14.74-4.3978,14.74-15.5119,0-10.5794-4.7549-14.9183-14.859-14.9183H16.0636v30.43Z"/><path class="cls-1" d="M48.0241,32.8975c0-12.0057,8.4988-16.4038,15.0368-16.4038,7.0724,0,13.848,4.22,13.848,17.0574v1.7235H55.3342c.2975,5.7057,3.8044,8.2019,8.44,8.2019A11.44,11.44,0,0,0,72.63,39.7919l3.863,3.8037a17.0324,17.0324,0,0,1-13.2537,5.7057C55.3342,49.3013,48.0241,44.4869,48.0241,32.8975Zm22.1691-3.0906c-.4166-4.8141-2.7935-7.37-7.1916-7.37-3.5661,0-6.8348,2.0207-7.5483,7.37Z"/><path class="cls-1" d="M80.1382,44.4276l16.82-21.5151H81.3868V17.088H106.111v4.3982l-16.88,21.5151h17.89v5.6461H80.1382Z"/><path class="cls-1" d="M111.0691,39.7323V17.088h7.37V38.0088c0,3.5066,1.4862,5.1113,4.6956,5.1113s5.8837-1.6643,8.558-4.101V17.088h7.37V48.6474h-7.37V44.3681a15.6439,15.6439,0,0,1-11.53,4.8736C114.6352,49.2417,111.0691,45.9728,111.0691,39.7323Z"/><path class="cls-1" d="M144.42,32.9567c0-10.9357,5.4079-16.463,13.4913-16.463a12.0318,12.0318,0,0,1,9.0339,3.9821V4.6664h7.31V40.921c0,3.8038.2382,6.1217.9511,7.7264h-7.5477a11.849,11.849,0,0,1-.7135-4.2793,12.5807,12.5807,0,0,1-10.0442,4.7548C149.71,49.1229,144.42,43.8928,144.42,32.9567Zm22.5252,6.1812V26.4787a9.6275,9.6275,0,0,0-7.4292-3.9229c-5.5276,0-7.7859,3.5661-7.7859,10.5793,0,6.6568,2.8527,9.985,7.5483,9.985A10.6166,10.6166,0,0,0,166.9454,39.1379Z"/><path class="cls-1" d="M181.2475,17.088h7.37V48.6474h-7.37Z"/><path class="cls-1" d="M193.8475,32.8975c0-11.6493,7.6674-16.4038,15.3935-16.4038,7.6668,0,15.3934,4.7545,15.3934,16.4038,0,11.53-7.7266,16.4038-15.3934,16.4038S193.8475,44.4276,193.8475,32.8975Zm23.417,0c0-5.884-2.4959-10.1634-8.0235-10.1634-5.2894,0-8.0236,3.8038-8.0236,10.1634,0,6.0028,2.4367,10.2818,8.0236,10.2818C214.53,43.1793,217.2645,39.3756,217.2645,32.8975Z"/><path class="cls-2" d="M188.6473,8.4427a3.7156,3.7156,0,1,1-7.43,0,3.7154,3.7154,0,1,1,7.43,0Z"/></svg>