<svg id="Layer_1" data-name="Layer 1" xmlns="http://www.w3.org/2000/svg" viewBox="0 0 335 69.22"><defs><style>.cls-1{fill:#fff;}.cls-2{fill:#f45d48;}</style></defs><g id="Layer_2" data-name="Layer 2"><g id="Layer_1-2" data-name="Layer 1-2"><path class="cls-1" d="M20.46,57.89c15.58,0,22.86-6.83,22.86-24.06,0-16.41-7.37-23.14-23-23.14h-8.8v47.2ZM0,0H19.45c21.38,0,35.4,10,35.4,33.83,0,24.33-14.29,34.38-35.4,34.38H0Z"/><path class="cls-1" d="M95.48,39c-.65-7.47-4.34-11.43-11.16-11.43-5.53,0-10.6,3.13-11.71,11.43ZM61.09,43.78c0-18.61,13.18-25.43,23.32-25.43,11,0,21.48,6.54,21.48,26.45v2.67H72.43c.46,8.85,5.9,12.72,13.09,12.72,6.36,0,10-2.12,13.73-5.71l6,5.89c-5.08,5.63-11.8,8.85-20.56,8.85-12.26,0-23.6-7.46-23.6-25.44"/><polygon class="cls-1" points="112.83 19.27 112.83 28.3 136.98 28.3 110.9 61.67 110.9 68.22 152.74 68.22 152.74 59.45 125 59.45 151.18 26.09 151.18 19.27 112.83 19.27"/><path class="cls-1" d="M158.87,54.39V19.27H170.3V51.71c0,5.44,2.3,7.93,7.28,7.93s9.13-2.58,13.27-6.36v-34h11.44V68.21H190.85V61.57A24.19,24.19,0,0,1,173,69.13c-8.57,0-14.1-5.07-14.1-14.74"/><path class="cls-1" d="M245.53,53.47V33.83A14.91,14.91,0,0,0,234,27.75c-8.58,0-12.07,5.53-12.07,16.41,0,10.32,4.42,15.48,11.7,15.48,4.7,0,9.22-3,11.89-6.17M210.6,43.88c0-17,8.38-25.54,20.92-25.54a18.63,18.63,0,0,1,14,6.18V0h11.34V56.23c0,5.9.37,9.49,1.48,12H246.63a18.47,18.47,0,0,1-1.1-6.63c-3.59,4.12-8.3,7.4-15.53,7.4-11.16,0-19.36-8.11-19.36-25.07"/><rect class="cls-1" x="267.72" y="19.26" width="11.42" height="48.95"/><path class="cls-1" d="M323.57,43.78c0-9.12-3.87-15.76-12.44-15.76-8.21,0-12.44,5.9-12.44,15.76,0,9.31,3.77,15.95,12.44,15.95,8.2,0,12.44-5.9,12.44-15.95m-36.31,0c0-18.06,11.89-25.43,23.87-25.43S335,25.72,335,43.78c0,17.88-12,25.44-23.87,25.44s-23.87-7.56-23.87-25.44"/><path class="cls-2" d="M279.76,5.86c0,4.41-3,5.87-5.78,5.87s-5.75-1.46-5.75-5.87S271.26,0,274,0s5.78,1.48,5.78,5.86"/></g></g></svg>